# xmcd
#
# Track frame offsets:
#	150
#	16419
#	34933
#	48397
#	65404
#	89821
#
# Disc length: 1395 seconds
#
# Revision: 2
# Processed by: cddbd v1.5.1PL0 Copyright (c) Steve Scherf et al.
# Submitted via: audiograbber 1.83.01
#
DISCID=4e057106
DTITLE=The Lost Trailers - EP
DYEAR=2003
DGENRE=Country
TTITLE0=Longfall
TTITLE1=Walkin' Blind
TTITLE2=Bad Habit
TTITLE3=Sitting On Top of the World
TTITLE4=Averly Jane
TTITLE5=Horse
EXTD=
EXTT0=
EXTT1=
EXTT2=
EXTT3=
EXTT4=
EXTT5=
PLAYORDER=
